<mxfile host="app.diagrams.net" agent="Mozilla/5.0 (Macintosh; Intel Mac OS X 10_15_7) AppleWebKit/537.36 (KHTML, like Gecko) Chrome/134.0.0.0 Safari/537.36" version="26.1.1">
  <diagram name="Page-1" id="049KQb3cU-aBW_j-CN0q">
    <mxGraphModel dx="1853" dy="650" grid="1" gridSize="10" guides="1" tooltips="1" connect="1" arrows="1" fold="1" page="1" pageScale="1" pageWidth="827" pageHeight="1169" math="0" shadow="0">
      <root>
        <mxCell id="0" />
        <mxCell id="1" parent="0" />
        <mxCell id="4AD5CBJPBXNIvJlcnSHS-1" value="Note" style="swimlane;fontStyle=1;align=center;verticalAlign=top;childLayout=stackLayout;horizontal=1;startSize=26;horizontalStack=0;resizeParent=1;resizeParentMax=0;resizeLast=0;collapsible=1;marginBottom=0;whiteSpace=wrap;html=1;" vertex="1" parent="1">
          <mxGeometry x="175" y="460" width="161" height="180" as="geometry" />
        </mxCell>
        <mxCell id="4AD5CBJPBXNIvJlcnSHS-2" value="- text: String&lt;div&gt;- photo: binary&lt;/div&gt;&lt;div&gt;- video: binary&lt;/div&gt;&lt;div&gt;- id : int&lt;/div&gt;" style="text;strokeColor=none;fillColor=none;align=left;verticalAlign=top;spacingLeft=4;spacingRight=4;overflow=hidden;rotatable=0;points=[[0,0.5],[1,0.5]];portConstraint=eastwest;whiteSpace=wrap;html=1;" vertex="1" parent="4AD5CBJPBXNIvJlcnSHS-1">
          <mxGeometry y="26" width="161" height="64" as="geometry" />
        </mxCell>
        <mxCell id="4AD5CBJPBXNIvJlcnSHS-3" value="" style="line;strokeWidth=1;fillColor=none;align=left;verticalAlign=middle;spacingTop=-1;spacingLeft=3;spacingRight=3;rotatable=0;labelPosition=right;points=[];portConstraint=eastwest;strokeColor=inherit;" vertex="1" parent="4AD5CBJPBXNIvJlcnSHS-1">
          <mxGeometry y="90" width="161" height="8" as="geometry" />
        </mxCell>
        <mxCell id="4AD5CBJPBXNIvJlcnSHS-4" value="+ addImage(Image)&lt;br&gt;+ getimage() : Binary&lt;div&gt;+ addVideo(Image)&lt;/div&gt;&lt;div&gt;+ getVideo(Video): Binary&lt;br&gt;+ getId(): Int&lt;/div&gt;" style="text;strokeColor=none;fillColor=none;align=left;verticalAlign=top;spacingLeft=4;spacingRight=4;overflow=hidden;rotatable=0;points=[[0,0.5],[1,0.5]];portConstraint=eastwest;whiteSpace=wrap;html=1;" vertex="1" parent="4AD5CBJPBXNIvJlcnSHS-1">
          <mxGeometry y="98" width="161" height="82" as="geometry" />
        </mxCell>
        <mxCell id="4AD5CBJPBXNIvJlcnSHS-5" value="Image" style="swimlane;fontStyle=1;align=center;verticalAlign=top;childLayout=stackLayout;horizontal=1;startSize=26;horizontalStack=0;resizeParent=1;resizeParentMax=0;resizeLast=0;collapsible=1;marginBottom=0;whiteSpace=wrap;html=1;" vertex="1" parent="1">
          <mxGeometry x="445" y="460" width="161" height="34" as="geometry" />
        </mxCell>
        <mxCell id="4AD5CBJPBXNIvJlcnSHS-6" value="" style="line;strokeWidth=1;fillColor=none;align=left;verticalAlign=middle;spacingTop=-1;spacingLeft=3;spacingRight=3;rotatable=0;labelPosition=right;points=[];portConstraint=eastwest;strokeColor=inherit;" vertex="1" parent="4AD5CBJPBXNIvJlcnSHS-5">
          <mxGeometry y="26" width="161" height="8" as="geometry" />
        </mxCell>
        <mxCell id="4AD5CBJPBXNIvJlcnSHS-7" value="Video" style="swimlane;fontStyle=1;align=center;verticalAlign=top;childLayout=stackLayout;horizontal=1;startSize=26;horizontalStack=0;resizeParent=1;resizeParentMax=0;resizeLast=0;collapsible=1;marginBottom=0;whiteSpace=wrap;html=1;" vertex="1" parent="1">
          <mxGeometry x="445" y="520" width="161" height="34" as="geometry" />
        </mxCell>
        <mxCell id="4AD5CBJPBXNIvJlcnSHS-8" value="" style="line;strokeWidth=1;fillColor=none;align=left;verticalAlign=middle;spacingTop=-1;spacingLeft=3;spacingRight=3;rotatable=0;labelPosition=right;points=[];portConstraint=eastwest;strokeColor=inherit;" vertex="1" parent="4AD5CBJPBXNIvJlcnSHS-7">
          <mxGeometry y="26" width="161" height="8" as="geometry" />
        </mxCell>
        <mxCell id="4AD5CBJPBXNIvJlcnSHS-9" value="" style="endArrow=diamondThin;endFill=1;endSize=24;html=1;rounded=0;exitX=0;exitY=0;exitDx=0;exitDy=0;" edge="1" parent="1" source="4AD5CBJPBXNIvJlcnSHS-7">
          <mxGeometry width="160" relative="1" as="geometry">
            <mxPoint x="385" y="640" as="sourcePoint" />
            <mxPoint x="338" y="520" as="targetPoint" />
          </mxGeometry>
        </mxCell>
        <mxCell id="4AD5CBJPBXNIvJlcnSHS-10" value="" style="endArrow=diamondThin;endFill=1;endSize=24;html=1;rounded=0;exitX=0;exitY=0;exitDx=0;exitDy=0;" edge="1" parent="1">
          <mxGeometry width="160" relative="1" as="geometry">
            <mxPoint x="442" y="476.5" as="sourcePoint" />
            <mxPoint x="335" y="476.5" as="targetPoint" />
          </mxGeometry>
        </mxCell>
        <mxCell id="4AD5CBJPBXNIvJlcnSHS-11" value="&lt;b&gt;Security &amp;amp; Cloud sync Class Diagram&lt;br&gt;SecureNote class extending and has crypto has depdency&amp;nbsp;&lt;/b&gt;" style="text;html=1;align=center;verticalAlign=middle;resizable=0;points=[];autosize=1;strokeColor=none;fillColor=none;" vertex="1" parent="1">
          <mxGeometry x="140" y="90" width="360" height="40" as="geometry" />
        </mxCell>
        <mxCell id="4AD5CBJPBXNIvJlcnSHS-12" value="" style="html=1;labelBackgroundColor=#ffffff;jettySize=auto;orthogonalLoop=1;fontSize=14;rounded=0;jumpStyle=gap;edgeStyle=orthogonalEdgeStyle;startArrow=none;endArrow=block;endFill=0;strokeWidth=1;exitX=0.5;exitY=0;exitDx=0;exitDy=0;" edge="1" parent="1" source="4AD5CBJPBXNIvJlcnSHS-13">
          <mxGeometry width="48" height="48" relative="1" as="geometry">
            <mxPoint x="210" y="688" as="sourcePoint" />
            <mxPoint x="250" y="650" as="targetPoint" />
            <Array as="points">
              <mxPoint x="256" y="676" />
              <mxPoint x="251" y="676" />
            </Array>
          </mxGeometry>
        </mxCell>
        <mxCell id="4AD5CBJPBXNIvJlcnSHS-13" value="SecureNOte&lt;div&gt;&lt;br&gt;&lt;/div&gt;&lt;div&gt;&lt;span style=&quot;font-weight: normal;&quot;&gt;+ passwordHash(String): String&lt;/span&gt;&lt;/div&gt;" style="swimlane;fontStyle=1;align=center;verticalAlign=top;childLayout=stackLayout;horizontal=1;startSize=26;horizontalStack=0;resizeParent=1;resizeParentMax=0;resizeLast=0;collapsible=1;marginBottom=0;whiteSpace=wrap;html=1;" vertex="1" collapsed="1" parent="1">
          <mxGeometry x="175" y="700" width="185" height="60" as="geometry">
            <mxRectangle x="175" y="400" width="161" height="34" as="alternateBounds" />
          </mxGeometry>
        </mxCell>
        <mxCell id="4AD5CBJPBXNIvJlcnSHS-14" value="" style="line;strokeWidth=1;fillColor=none;align=left;verticalAlign=middle;spacingTop=-1;spacingLeft=3;spacingRight=3;rotatable=0;labelPosition=right;points=[];portConstraint=eastwest;strokeColor=inherit;" vertex="1" parent="4AD5CBJPBXNIvJlcnSHS-13">
          <mxGeometry y="26" width="161" height="8" as="geometry" />
        </mxCell>
        <mxCell id="4AD5CBJPBXNIvJlcnSHS-15" value="&amp;lt;&amp;lt;keyword&amp;gt;&amp;gt;" style="endArrow=open;html=1;rounded=0;align=center;verticalAlign=bottom;dashed=1;endFill=0;labelBackgroundColor=none;" edge="1" parent="1">
          <mxGeometry relative="1" as="geometry">
            <mxPoint x="360" y="720" as="sourcePoint" />
            <mxPoint x="520" y="720" as="targetPoint" />
          </mxGeometry>
        </mxCell>
        <mxCell id="4AD5CBJPBXNIvJlcnSHS-16" value="Dependency1" style="resizable=0;html=1;align=center;verticalAlign=top;labelBackgroundColor=none;" connectable="0" vertex="1" parent="4AD5CBJPBXNIvJlcnSHS-15">
          <mxGeometry relative="1" as="geometry" />
        </mxCell>
        <mxCell id="4AD5CBJPBXNIvJlcnSHS-17" value="Crypto&lt;div&gt;&lt;br&gt;&lt;/div&gt;&lt;div&gt;&lt;span style=&quot;font-weight: 400;&quot;&gt;+ hash(String): String&lt;/span&gt;&lt;/div&gt;" style="swimlane;fontStyle=1;align=center;verticalAlign=top;childLayout=stackLayout;horizontal=1;startSize=26;horizontalStack=0;resizeParent=1;resizeParentMax=0;resizeLast=0;collapsible=1;marginBottom=0;whiteSpace=wrap;html=1;" vertex="1" collapsed="1" parent="1">
          <mxGeometry x="520" y="700" width="185" height="60" as="geometry">
            <mxRectangle x="175" y="400" width="161" height="34" as="alternateBounds" />
          </mxGeometry>
        </mxCell>
        <mxCell id="4AD5CBJPBXNIvJlcnSHS-18" value="" style="line;strokeWidth=1;fillColor=none;align=left;verticalAlign=middle;spacingTop=-1;spacingLeft=3;spacingRight=3;rotatable=0;labelPosition=right;points=[];portConstraint=eastwest;strokeColor=inherit;" vertex="1" parent="4AD5CBJPBXNIvJlcnSHS-17">
          <mxGeometry y="26" width="161" height="8" as="geometry" />
        </mxCell>
        <mxCell id="4AD5CBJPBXNIvJlcnSHS-25" value="&amp;lt;&amp;lt;keyword&amp;gt;&amp;gt;" style="endArrow=open;html=1;rounded=0;align=center;verticalAlign=bottom;dashed=1;endFill=0;labelBackgroundColor=none;entryX=0;entryY=0.5;entryDx=0;entryDy=0;exitX=1;exitY=0.75;exitDx=0;exitDy=0;" edge="1" parent="1" source="4AD5CBJPBXNIvJlcnSHS-33" target="4AD5CBJPBXNIvJlcnSHS-2">
          <mxGeometry relative="1" as="geometry">
            <mxPoint x="90" y="510" as="sourcePoint" />
            <mxPoint x="490" y="680" as="targetPoint" />
            <Array as="points">
              <mxPoint x="140" y="520" />
            </Array>
          </mxGeometry>
        </mxCell>
        <mxCell id="4AD5CBJPBXNIvJlcnSHS-26" value="Dependency1" style="resizable=0;html=1;align=center;verticalAlign=top;labelBackgroundColor=none;" connectable="0" vertex="1" parent="4AD5CBJPBXNIvJlcnSHS-25">
          <mxGeometry relative="1" as="geometry" />
        </mxCell>
        <mxCell id="4AD5CBJPBXNIvJlcnSHS-28" value="FileManager" style="swimlane;fontStyle=1;align=center;verticalAlign=top;childLayout=stackLayout;horizontal=1;startSize=26;horizontalStack=0;resizeParent=1;resizeParentMax=0;resizeLast=0;collapsible=1;marginBottom=0;whiteSpace=wrap;html=1;" vertex="1" collapsed="1" parent="1">
          <mxGeometry x="-60" y="640" width="130" height="60" as="geometry">
            <mxRectangle x="-60" y="340" width="161" height="34" as="alternateBounds" />
          </mxGeometry>
        </mxCell>
        <mxCell id="4AD5CBJPBXNIvJlcnSHS-29" value="" style="line;strokeWidth=1;fillColor=none;align=left;verticalAlign=middle;spacingTop=-1;spacingLeft=3;spacingRight=3;rotatable=0;labelPosition=right;points=[];portConstraint=eastwest;strokeColor=inherit;" vertex="1" parent="4AD5CBJPBXNIvJlcnSHS-28">
          <mxGeometry y="26" width="161" height="8" as="geometry" />
        </mxCell>
        <mxCell id="4AD5CBJPBXNIvJlcnSHS-33" value="&lt;p style=&quot;margin:0px;margin-top:4px;text-align:center;&quot;&gt;&lt;i&gt;&amp;lt;&amp;lt;Interface&amp;gt;&amp;gt;&lt;/i&gt;&lt;br&gt;&lt;b&gt;LocalPersistence&lt;/b&gt;&lt;/p&gt;&lt;br&gt;&lt;hr size=&quot;1&quot; style=&quot;border-style:solid;&quot;&gt;&lt;div style=&quot;text-align: center;&quot;&gt;&lt;div style=&quot;text-align: left;&quot;&gt;&lt;span style=&quot;background-color: transparent; color: light-dark(rgb(0, 0, 0), rgb(255, 255, 255));&quot;&gt;+ getNotes(): List&lt;/span&gt;&lt;/div&gt;&lt;div style=&quot;text-align: left;&quot;&gt;&lt;span style=&quot;background-color: transparent; color: light-dark(rgb(0, 0, 0), rgb(255, 255, 255));&quot;&gt;+ save(Note)&lt;/span&gt;&lt;/div&gt;&lt;div style=&quot;text-align: left;&quot;&gt;&lt;span style=&quot;background-color: transparent; color: light-dark(rgb(0, 0, 0), rgb(255, 255, 255));&quot;&gt;+ update(Note)&lt;/span&gt;&lt;/div&gt;&lt;/div&gt;&lt;div&gt;+ delete(noteId&lt;/div&gt;" style="verticalAlign=top;align=left;overflow=fill;html=1;whiteSpace=wrap;" vertex="1" parent="1">
          <mxGeometry x="-120" y="430" width="190" height="133" as="geometry" />
        </mxCell>
        <mxCell id="4AD5CBJPBXNIvJlcnSHS-34" style="edgeStyle=orthogonalEdgeStyle;rounded=0;orthogonalLoop=1;jettySize=auto;html=1;exitX=0.5;exitY=1;exitDx=0;exitDy=0;" edge="1" parent="1" source="4AD5CBJPBXNIvJlcnSHS-33" target="4AD5CBJPBXNIvJlcnSHS-33">
          <mxGeometry relative="1" as="geometry" />
        </mxCell>
        <mxCell id="4AD5CBJPBXNIvJlcnSHS-36" value="" style="endArrow=block;dashed=1;endFill=0;endSize=12;html=1;rounded=0;exitX=0.5;exitY=0;exitDx=0;exitDy=0;entryX=0.65;entryY=1;entryDx=0;entryDy=0;entryPerimeter=0;" edge="1" parent="1" source="4AD5CBJPBXNIvJlcnSHS-28" target="4AD5CBJPBXNIvJlcnSHS-33">
          <mxGeometry width="160" relative="1" as="geometry">
            <mxPoint x="260" y="580" as="sourcePoint" />
            <mxPoint x="420" y="580" as="targetPoint" />
          </mxGeometry>
        </mxCell>
        <mxCell id="4AD5CBJPBXNIvJlcnSHS-37" value="&lt;p style=&quot;margin:0px;margin-top:4px;text-align:center;&quot;&gt;&lt;i&gt;&amp;lt;&amp;lt;Interface&amp;gt;&amp;gt;&lt;/i&gt;&lt;br&gt;&lt;b&gt;AppNetworkInterface&lt;/b&gt;&lt;/p&gt;&lt;hr size=&quot;1&quot; style=&quot;border-style:solid;&quot;&gt;&lt;p style=&quot;margin:0px;margin-left:4px;&quot;&gt;&lt;br&gt;&lt;/p&gt;&lt;p style=&quot;margin:0px;margin-left:4px;&quot;&gt;+ fetchNote(): List&lt;br&gt;+ upload(Note)&lt;/p&gt;&lt;p style=&quot;margin:0px;margin-left:4px;&quot;&gt;+ remove(noteId)&lt;/p&gt;" style="verticalAlign=top;align=left;overflow=fill;html=1;whiteSpace=wrap;" vertex="1" parent="1">
          <mxGeometry x="-120" y="180" width="190" height="140" as="geometry" />
        </mxCell>
        <mxCell id="4AD5CBJPBXNIvJlcnSHS-38" value="&lt;p style=&quot;margin:0px;margin-top:4px;text-align:center;&quot;&gt;&lt;b&gt;NetworkManager&lt;/b&gt;&lt;/p&gt;&lt;hr size=&quot;1&quot; style=&quot;border-style:solid;&quot;&gt;&lt;p style=&quot;margin:0px;margin-left:4px;&quot;&gt;&lt;br&gt;&lt;/p&gt;&lt;hr size=&quot;1&quot; style=&quot;border-style:solid;&quot;&gt;&lt;p style=&quot;margin:0px;margin-left:4px;&quot;&gt;&lt;br&gt;&lt;/p&gt;" style="verticalAlign=top;align=left;overflow=fill;html=1;whiteSpace=wrap;" vertex="1" parent="1">
          <mxGeometry x="180" y="200" width="160" height="90" as="geometry" />
        </mxCell>
        <mxCell id="4AD5CBJPBXNIvJlcnSHS-39" value="" style="endArrow=block;dashed=1;endFill=0;endSize=12;html=1;rounded=0;exitX=-0.012;exitY=0.578;exitDx=0;exitDy=0;exitPerimeter=0;entryX=1;entryY=0.5;entryDx=0;entryDy=0;" edge="1" parent="1" source="4AD5CBJPBXNIvJlcnSHS-38" target="4AD5CBJPBXNIvJlcnSHS-37">
          <mxGeometry width="160" relative="1" as="geometry">
            <mxPoint x="70" y="470" as="sourcePoint" />
            <mxPoint x="230" y="470" as="targetPoint" />
          </mxGeometry>
        </mxCell>
        <mxCell id="4AD5CBJPBXNIvJlcnSHS-42" value="Use" style="endArrow=open;endSize=12;dashed=1;html=1;rounded=0;exitX=0.3;exitY=1.022;exitDx=0;exitDy=0;exitPerimeter=0;entryX=0.323;entryY=0;entryDx=0;entryDy=0;entryPerimeter=0;" edge="1" parent="1" source="4AD5CBJPBXNIvJlcnSHS-38" target="4AD5CBJPBXNIvJlcnSHS-1">
          <mxGeometry x="0.0478" width="160" relative="1" as="geometry">
            <mxPoint x="-10" y="470" as="sourcePoint" />
            <mxPoint x="150" y="470" as="targetPoint" />
            <mxPoint as="offset" />
          </mxGeometry>
        </mxCell>
      </root>
    </mxGraphModel>
  </diagram>
</mxfile>
